<svg width="20" height="20" viewBox="0 0 20 20" fill="none" xmlns="http://www.w3.org/2000/svg">
<path fill-rule="evenodd" clip-rule="evenodd" d="M10 1.66663C7.69881 1.66663 5.83333 3.53211 5.83333 5.83329C5.83333 8.13448 7.69881 9.99996 10 9.99996C12.3012 9.99996 14.1667 8.13448 14.1667 5.83329C14.1667 3.53211 12.3012 1.66663 10 1.66663ZM7.5 5.83329C7.5 4.45258 8.61929 3.33329 10 3.33329C11.3807 3.33329 12.5 4.45258 12.5 5.83329C12.5 7.214 11.3807 8.33329 10 8.33329C8.61929 8.33329 7.5 7.214 7.5 5.83329Z" fill="#2D3648"/>
<path d="M6.66667 11.6666C5.5616 11.6666 4.50179 12.1056 3.72039 12.887C2.93899 13.6684 2.5 14.7282 2.5 15.8333V17.5C2.5 17.9602 2.8731 18.3333 3.33333 18.3333C3.79357 18.3333 4.16667 17.9602 4.16667 17.5V15.8333C4.16667 15.1703 4.43006 14.5344 4.8989 14.0655C5.36774 13.5967 6.00363 13.3333 6.66667 13.3333H13.3333C13.9964 13.3333 14.6323 13.5967 15.1011 14.0655C15.5699 14.5344 15.8333 15.1703 15.8333 15.8333V17.5C15.8333 17.9602 16.2064 18.3333 16.6667 18.3333C17.1269 18.3333 17.5 17.9602 17.5 17.5V15.8333C17.5 14.7282 17.061 13.6684 16.2796 12.887C15.4982 12.1056 14.4384 11.6666 13.3333 11.6666H6.66667Z" fill="#2D3648"/>
</svg>
