<svg width="25" height="24" viewBox="0 0 25 24" fill="none" xmlns="http://www.w3.org/2000/svg">
<path fill-rule="evenodd" clip-rule="evenodd" d="M12.5001 1C10.6436 1 8.86309 1.7375 7.55033 3.05025C6.23758 4.36301 5.50008 6.14348 5.50008 8C5.50008 11.3527 4.78301 13.4346 4.12218 14.6461C3.79039 15.2544 3.4673 15.6535 3.24288 15.8904C3.1304 16.0091 3.04202 16.0878 2.9888 16.1322C2.96218 16.1544 2.94432 16.168 2.93663 16.1737L2.93377 16.1758C2.57528 16.4221 2.41664 16.8725 2.54299 17.2898C2.67068 17.7115 3.05941 18 3.50008 18H21.5001C21.9407 18 22.3295 17.7115 22.4572 17.2898C22.5835 16.8725 22.4249 16.4221 22.0664 16.1758L22.0635 16.1737C22.0558 16.168 22.038 16.1544 22.0114 16.1322C21.9581 16.0878 21.8698 16.0091 21.7573 15.8904C21.5329 15.6535 21.2098 15.2544 20.878 14.6461C20.2171 13.4346 19.5001 11.3527 19.5001 8C19.5001 6.14349 18.7626 4.36301 17.4498 3.05025C16.1371 1.7375 14.3566 1 12.5001 1ZM19.1222 15.6039C19.1983 15.7434 19.2747 15.8753 19.3508 16H5.6494C5.72549 15.8753 5.80188 15.7434 5.87797 15.6039C6.71715 14.0654 7.50008 11.6473 7.50008 8C7.50008 6.67392 8.02686 5.40215 8.96454 4.46447C9.90223 3.52678 11.174 3 12.5001 3C13.8262 3 15.0979 3.52678 16.0356 4.46447C16.9733 5.40215 17.5001 6.67392 17.5001 8C17.5001 11.6473 18.283 14.0654 19.1222 15.6039Z" fill="#2D3648"/>
<path d="M11.6351 20.4982C11.358 20.0205 10.7461 19.8579 10.2683 20.135C9.7906 20.4121 9.62798 21.024 9.9051 21.5018C10.1688 21.9564 10.5473 22.3337 11.0028 22.5961C11.4582 22.8584 11.9745 22.9965 12.5001 22.9965C13.0257 22.9965 13.542 22.8584 13.9974 22.5961C14.4529 22.3337 14.8314 21.9564 15.0951 21.5018C15.3722 21.024 15.2096 20.4121 14.7319 20.135C14.2541 19.8579 13.6422 20.0205 13.3651 20.4982C13.2772 20.6498 13.151 20.7756 12.9992 20.863C12.8474 20.9504 12.6753 20.9965 12.5001 20.9965C12.3249 20.9965 12.1528 20.9504 12.001 20.863C11.8492 20.7756 11.723 20.6498 11.6351 20.4982Z" fill="#2D3648"/>
</svg>
