<svg width="16" height="16" viewBox="0 0 16 16" fill="none" xmlns="http://www.w3.org/2000/svg">
<path d="M1.99992 3.33331C1.63173 3.33331 1.33325 3.63179 1.33325 3.99998C1.33325 4.36817 1.63173 4.66665 1.99992 4.66665H2.00659C2.37478 4.66665 2.67325 4.36817 2.67325 3.99998C2.67325 3.63179 2.37478 3.33331 2.00659 3.33331H1.99992Z" fill="white"/>
<path d="M5.33325 3.33331C4.96506 3.33331 4.66659 3.63179 4.66659 3.99998C4.66659 4.36817 4.96506 4.66665 5.33325 4.66665H13.9999C14.3681 4.66665 14.6666 4.36817 14.6666 3.99998C14.6666 3.63179 14.3681 3.33331 13.9999 3.33331H5.33325Z" fill="white"/>
<path d="M5.33325 7.33331C4.96506 7.33331 4.66659 7.63179 4.66659 7.99998C4.66659 8.36817 4.96506 8.66665 5.33325 8.66665H13.9999C14.3681 8.66665 14.6666 8.36817 14.6666 7.99998C14.6666 7.63179 14.3681 7.33331 13.9999 7.33331H5.33325Z" fill="white"/>
<path d="M4.66659 12C4.66659 11.6318 4.96506 11.3333 5.33325 11.3333H13.9999C14.3681 11.3333 14.6666 11.6318 14.6666 12C14.6666 12.3682 14.3681 12.6666 13.9999 12.6666H5.33325C4.96506 12.6666 4.66659 12.3682 4.66659 12Z" fill="white"/>
<path d="M1.33325 7.99998C1.33325 7.63179 1.63173 7.33331 1.99992 7.33331H2.00659C2.37478 7.33331 2.67325 7.63179 2.67325 7.99998C2.67325 8.36817 2.37478 8.66665 2.00659 8.66665H1.99992C1.63173 8.66665 1.33325 8.36817 1.33325 7.99998Z" fill="white"/>
<path d="M1.99992 11.3333C1.63173 11.3333 1.33325 11.6318 1.33325 12C1.33325 12.3682 1.63173 12.6666 1.99992 12.6666H2.00659C2.37478 12.6666 2.67325 12.3682 2.67325 12C2.67325 11.6318 2.37478 11.3333 2.00659 11.3333H1.99992Z" fill="white"/>
</svg>
