<svg width="16" height="16" viewBox="0 0 16 16" fill="none" xmlns="http://www.w3.org/2000/svg">
<g opacity="0.6">
<path fill-rule="evenodd" clip-rule="evenodd" d="M9.32811 1.41602C9.36482 1.12235 9.20353 0.839641 8.93206 0.721796C8.66058 0.60395 8.34391 0.679184 8.15445 0.90654L1.48778 8.90654C1.32218 9.10526 1.28648 9.38184 1.3962 9.6161C1.50592 9.85036 1.74125 10 1.99993 10H7.24474L6.67174 14.584C6.63503 14.8776 6.79632 15.1603 7.0678 15.2782C7.33927 15.396 7.65594 15.3208 7.84541 15.0935L14.5121 7.09345C14.6777 6.89473 14.7134 6.61815 14.6037 6.38389C14.4939 6.14964 14.2586 6 13.9999 6H8.75512L9.32811 1.41602ZM7.99993 8.66666H3.42329L7.72303 3.50697L7.33841 6.58397C7.31469 6.77372 7.37359 6.96451 7.50014 7.10786C7.62669 7.25122 7.80871 7.33333 7.99993 7.33333H12.5766L8.27682 12.493L8.66145 9.41602C8.68516 9.22628 8.62626 9.03548 8.49971 8.89213C8.37316 8.74877 8.19115 8.66666 7.99993 8.66666Z" fill="#FAFAFA"/>
</g>
</svg>
