<svg width="25" height="24" viewBox="0 0 25 24" fill="none" xmlns="http://www.w3.org/2000/svg">
<path fill-rule="evenodd" clip-rule="evenodd" d="M1.50014 5.98266C1.49997 5.99253 1.49996 6.00239 1.50009 6.01225V18C1.50009 19.6523 2.8478 21 4.50009 21H20.5001C22.1524 21 23.5001 19.6523 23.5001 18V6.01236C23.5002 6.00242 23.5002 5.99247 23.5 5.98251C23.4906 4.33822 22.1465 3 20.5001 3H4.50009C2.85359 3 1.50953 4.3383 1.50014 5.98266ZM3.60666 5.55395C3.77204 5.22692 4.11212 5 4.50009 5H20.5001C20.8881 5 21.2281 5.22692 21.3935 5.55395L12.5001 11.7793L3.60666 5.55395ZM21.5001 7.92066V18C21.5001 18.5477 21.0478 19 20.5001 19H4.50009C3.95237 19 3.50009 18.5477 3.50009 18V7.92066L11.9266 13.8192C12.2709 14.0603 12.7292 14.0603 13.0735 13.8192L21.5001 7.92066Z" fill="#2D3648"/>
</svg>
