<svg width="20" height="20" viewBox="0 0 20 20" fill="none" xmlns="http://www.w3.org/2000/svg">
<g clip-path="url(#clip0_2383_431)">
<path fill-rule="evenodd" clip-rule="evenodd" d="M6.66667 0.833374C6.51095 0.833374 6.36521 0.876085 6.24051 0.950431L0.419884 4.2765C0.160238 4.42487 0 4.70099 0 5.00004V18.3334C0 18.6304 0.158132 18.905 0.415061 19.0541C0.67199 19.2032 0.988863 19.2043 1.24678 19.0569L6.69289 15.9448L12.9456 19.0712C13.0538 19.1282 13.176 19.162 13.3058 19.1663C13.3149 19.1666 13.3241 19.1667 13.3333 19.1667C13.4891 19.1667 13.6348 19.124 13.7595 19.0496L19.5801 15.7236C19.8398 15.5752 20 15.2991 20 15V1.66671C20 1.36965 19.8419 1.09505 19.5849 0.945949C19.328 0.796847 19.0111 0.795789 18.7532 0.943171L13.3071 4.05523L7.05433 0.928846C6.94046 0.868893 6.81101 0.834529 6.67364 0.833403L6.66667 0.833374ZM14.1667 16.8974L18.3333 14.5164V3.10269L14.1667 5.48364V16.8974ZM12.5 5.51507L7.5 3.01507V14.485L12.5 16.985V5.51507ZM1.66667 5.48364L5.83333 3.10269V14.5164L1.66667 16.8974V5.48364Z" fill="#2D3648"/>
</g>
<defs>
<clipPath id="clip0_2383_431">
<rect width="20" height="20" fill="white"/>
</clipPath>
</defs>
</svg>
