<svg width="16" height="16" viewBox="0 0 16 16" fill="none" xmlns="http://www.w3.org/2000/svg">
<path fill-rule="evenodd" clip-rule="evenodd" d="M8.05421 1.67273C8.18323 1.90166 8.16574 2.18501 8.00954 2.39632C7.44006 3.16676 7.16603 4.11601 7.23727 5.07142C7.30852 6.02683 7.72032 6.92493 8.39777 7.60238C9.07522 8.27983 9.97332 8.69163 10.9287 8.76288C11.8841 8.83412 12.8334 8.56009 13.6038 7.99061C13.8151 7.83441 14.0985 7.81692 14.3274 7.94594C14.5563 8.07495 14.6881 8.32641 14.6639 8.58807C14.5474 9.84896 14.0742 11.0506 13.2997 12.0524C12.5251 13.0541 11.4813 13.8146 10.2904 14.2448C9.09943 14.6749 7.81059 14.757 6.57468 14.4815C5.33876 14.2059 4.20689 13.584 3.31151 12.6886C2.41613 11.7933 1.79426 10.6614 1.51868 9.42547C1.2431 8.18956 1.32521 6.90072 1.75539 5.70977C2.18557 4.51881 2.94603 3.475 3.9478 2.70048C4.94956 1.92595 6.15119 1.45274 7.41208 1.33621C7.67374 1.31203 7.9252 1.44381 8.05421 1.67273ZM6.21102 2.95943C5.69261 3.14699 5.20383 3.41474 4.76335 3.7553C3.96194 4.37492 3.35357 5.20997 3.00942 6.16273C2.66528 7.1155 2.59959 8.14657 2.82006 9.1353C3.04052 10.124 3.53801 11.0295 4.25432 11.7458C4.97063 12.4621 5.87612 12.9596 6.86485 13.1801C7.85358 13.4006 8.88465 13.3349 9.83742 12.9907C10.7902 12.6466 11.6252 12.0382 12.2449 11.2368C12.5854 10.7963 12.8532 10.3075 13.0407 9.78913C12.3386 10.0431 11.5856 10.1489 10.8296 10.0925C9.5557 9.99752 8.35823 9.44846 7.45496 8.54519C6.55169 7.64192 6.00263 6.44445 5.90763 5.17057C5.85126 4.41459 5.95702 3.66151 6.21102 2.95943Z" fill="#FAFAFA"/>
</svg>
