<svg width="16" height="16" viewBox="0 0 16 16" fill="none" xmlns="http://www.w3.org/2000/svg">
<g opacity="0.6">
<path fill-rule="evenodd" clip-rule="evenodd" d="M8.59766 1.03821C8.48535 0.810674 8.2536 0.666626 7.99986 0.666626C7.74611 0.666626 7.51437 0.810674 7.40205 1.03821L5.49702 4.8976L1.23677 5.5203C0.985731 5.557 0.777278 5.733 0.699026 5.97434C0.620774 6.21568 0.686289 6.48051 0.868035 6.65753L3.95018 9.65954L3.22278 13.9006C3.17989 14.1507 3.28272 14.4035 3.48803 14.5527C3.69335 14.7018 3.96555 14.7215 4.19016 14.6033L7.99986 12.5999L11.8096 14.6033C12.0342 14.7215 12.3064 14.7018 12.5117 14.5527C12.717 14.4035 12.8198 14.1507 12.7769 13.9006L12.0495 9.65954L15.1317 6.65753C15.3134 6.48051 15.3789 6.21568 15.3007 5.97434C15.2224 5.733 15.014 5.557 14.7629 5.5203L10.5027 4.8976L8.59766 1.03821ZM6.53766 5.80171L7.99986 2.83946L9.46205 5.80171C9.55908 5.99827 9.74654 6.13458 9.96344 6.16628L13.2342 6.64436L10.868 8.94905C10.7108 9.10221 10.639 9.32297 10.6761 9.53932L11.2344 12.7944L8.31016 11.2566C8.1159 11.1544 7.88381 11.1544 7.68956 11.2566L4.76531 12.7944L5.3236 9.53932C5.3607 9.32297 5.28893 9.10221 5.13168 8.94905L2.76546 6.64436L6.03628 6.16628C6.25318 6.13458 6.44064 5.99827 6.53766 5.80171Z" fill="#121212"/>
</g>
</svg>
